<?xml version="1.0" encoding="UTF-8"?>
<svg id="Component_2_2" data-name="Component 2 2" xmlns="http://www.w3.org/2000/svg" viewBox="0 0 287.43 75.19">
  <defs>
    <style>
      .cls-1 {
        stroke: #ee9f29;
      }

      .cls-1, .cls-2 {
        fill: none;
        stroke-miterlimit: 10;
        stroke-width: 3px;
      }

      .cls-2 {
        stroke: #40a958;
      }

      .cls-3 {
        fill: #fff;
      }

      .cls-4 {
        isolation: isolate;
      }
    </style>
  </defs>
  <g id="Group_2" data-name="Group 2">
    <g id="Group_1" data-name="Group 1">
      <g class="cls-4">
        <path class="cls-3" d="m125.28,24.81h-9.36l-2.44,5.31h-3.55l10.82-23.24,10.44,23.24h-3.61l-2.29-5.31Zm-1.35-3.1l-3.24-7.43-3.4,7.43h6.64Z"/>
      </g>
      <g class="cls-4">
        <path class="cls-3" d="m136.4,8.26v13.17c0,1.88.31,3.25.92,4.12.92,1.26,2.2,1.88,3.87,1.88s2.96-.63,3.88-1.88c.61-.84.92-2.21.92-4.12v-13.17h3.3v14.08c0,2.3-.72,4.2-2.15,5.69-1.61,1.66-3.6,2.49-5.95,2.49s-4.33-.83-5.93-2.49c-1.44-1.49-2.15-3.39-2.15-5.69v-14.08h3.3Z"/>
      </g>
      <g class="cls-4">
        <path class="cls-3" d="m160.56,11.36v18.76h-3.3V11.36h-5.03v-3.1h13.34v3.1h-5.01Z"/>
      </g>
      <g class="cls-4">
        <path class="cls-3" d="m166.73,19.09c0-3.08,1.13-5.72,3.38-7.93,2.25-2.21,4.95-3.31,8.1-3.31s5.79,1.11,8.01,3.34c2.24,2.23,3.36,4.9,3.36,8.03s-1.12,5.81-3.37,8c-2.26,2.2-4.98,3.3-8.17,3.3-2.82,0-5.36-.98-7.6-2.93-2.47-2.16-3.71-4.99-3.71-8.5Zm3.33.04c0,2.42.81,4.4,2.44,5.96,1.61,1.56,3.48,2.34,5.59,2.34,2.29,0,4.23-.79,5.81-2.38,1.58-1.6,2.37-3.56,2.37-5.86s-.78-4.29-2.34-5.86c-1.55-1.59-3.46-2.38-5.75-2.38s-4.2.79-5.76,2.38c-1.57,1.57-2.35,3.5-2.35,5.81Z"/>
        <path class="cls-3" d="m206.1,11.51l-2.68,1.59c-.5-.87-.98-1.43-1.43-1.7-.47-.3-1.08-.45-1.83-.45-.92,0-1.68.26-2.28.78-.6.51-.91,1.15-.91,1.93,0,1.07.79,1.93,2.38,2.58l2.18.89c1.78.72,3.07,1.59,3.89,2.63.82,1.03,1.23,2.3,1.23,3.8,0,2.01-.67,3.67-2.01,4.98-1.35,1.32-3.03,1.98-5.03,1.98-1.9,0-3.46-.56-4.7-1.69-1.22-1.12-1.98-2.7-2.28-4.74l3.34-.74c.15,1.28.42,2.17.79,2.66.68.94,1.67,1.42,2.97,1.42,1.03,0,1.88-.34,2.56-1.03.68-.69,1.02-1.56,1.02-2.62,0-.42-.06-.81-.18-1.17-.12-.35-.3-.68-.55-.98-.25-.3-.57-.58-.97-.83s-.87-.51-1.42-.74l-2.11-.88c-2.99-1.27-4.49-3.12-4.49-5.55,0-1.64.63-3.02,1.88-4.12,1.26-1.11,2.82-1.67,4.69-1.67,2.52,0,4.49,1.23,5.9,3.68Zm-1.2-9.83l-4.97,4.54-5.04-4.54L197.06,0l2.85,2.69L202.74,0l2.15,1.69Z"/>
      </g>
      <g class="cls-4">
        <path class="cls-3" d="m213.94,16.98l8.51-8.72h4.4l-9.88,9.9,9.94,11.96h-4.42l-7.87-9.73-.68.68v9.05h-3.3V8.26h3.3v8.72Z"/>
      </g>
      <g class="cls-4">
        <path class="cls-3" d="m227.52,19.09c0-3.08,1.13-5.72,3.38-7.93,2.25-2.21,4.95-3.31,8.1-3.31s5.79,1.11,8.01,3.34c2.24,2.23,3.36,4.9,3.36,8.03s-1.12,5.81-3.37,8c-2.26,2.2-4.98,3.3-8.17,3.3-2.82,0-5.36-.98-7.6-2.93-2.47-2.16-3.71-4.99-3.71-8.5Zm3.33.04c0,2.42.81,4.4,2.44,5.96,1.61,1.56,3.48,2.34,5.59,2.34,2.29,0,4.23-.79,5.81-2.38,1.58-1.6,2.37-3.56,2.37-5.86s-.78-4.29-2.34-5.86c-1.55-1.59-3.46-2.38-5.75-2.38s-4.2.79-5.76,2.38c-1.57,1.57-2.35,3.5-2.35,5.81Z"/>
      </g>
      <g class="cls-4">
        <path class="cls-3" d="m257.82,8.26v18.76h6.43v3.1h-9.73V8.26h3.3Z"/>
      </g>
      <g class="cls-4">
        <path class="cls-3" d="m281.42,24.81h-9.36l-2.44,5.31h-3.55l10.82-23.24,10.44,23.24h-3.61l-2.29-5.31Zm-1.35-3.1l-3.24-7.43-3.4,7.43h6.64Z"/>
      </g>
      <g class="cls-4">
        <path class="cls-3" d="m118.47,48.05v18.76h-3.3v-18.76h-5.03v-3.1h13.34v3.1h-5.01Z"/>
        <path class="cls-3" d="m138.49,48.05h-8.77v5.25h8.51v3.1h-8.51v7.31h8.77v3.1h-12.06v-21.86h12.06v3.1Z"/>
      </g>
      <g class="cls-4">
        <path class="cls-3" d="m155.19,48.21l-2.68,1.59c-.5-.87-.98-1.43-1.43-1.7-.47-.3-1.08-.45-1.83-.45-.92,0-1.68.26-2.28.78-.6.51-.91,1.15-.91,1.93,0,1.07.79,1.93,2.38,2.58l2.18.89c1.77.72,3.07,1.59,3.89,2.63.82,1.03,1.23,2.3,1.23,3.8,0,2.01-.67,3.67-2.01,4.98-1.35,1.32-3.03,1.98-5.03,1.98-1.9,0-3.46-.56-4.7-1.69-1.22-1.12-1.98-2.7-2.28-4.74l3.34-.74c.15,1.28.42,2.17.79,2.66.68.94,1.67,1.42,2.97,1.42,1.03,0,1.88-.34,2.56-1.03.68-.69,1.02-1.56,1.02-2.62,0-.42-.06-.81-.18-1.17-.12-.35-.3-.68-.55-.98-.25-.3-.57-.58-.97-.83s-.87-.51-1.42-.74l-2.11-.88c-2.99-1.27-4.49-3.12-4.49-5.55,0-1.64.63-3.02,1.88-4.12,1.26-1.11,2.82-1.67,4.69-1.67,2.52,0,4.49,1.23,5.91,3.68Z"/>
      </g>
      <g class="cls-4">
        <path class="cls-3" d="m166.17,48.05v18.76h-3.3v-18.76h-5.03v-3.1h13.34v3.1h-5.01Z"/>
      </g>
    </g>
  </g>
  <g id="Group_4" data-name="Group 4">
    <g id="Group_3" data-name="Group 3">
      <path id="Path_1" data-name="Path 1" class="cls-2" d="m71.8,61.78h-29.4c-18.4,0-33.4-14.8-33.7-33.2V1.68"/>
      <path id="Path_2" data-name="Path 2" class="cls-2" d="m71.8,54.18h-28.5c-14.4,0-26.2-11.2-27-25.6V1.68"/>
      <path id="Path_3" data-name="Path 3" class="cls-2" d="m71.8,46.58h-28c-10.3,0-18.8-7.8-19.8-18-.1-.6-.1-1.3-.1-1.9V1.68"/>
      <path id="Path_4" data-name="Path 4" class="cls-1" d="m0,9.38h29.4c18.4,0,33.4,14.8,33.7,33.2v27"/>
      <path id="Path_5" data-name="Path 5" class="cls-1" d="m0,16.98h28.5c14.4,0,26.2,11.2,27,25.6v26.9"/>
      <path id="Path_6" data-name="Path 6" class="cls-1" d="m0,24.58h28c10.3,0,18.8,7.8,19.8,18,.1.6.1,1.3.1,1.9v25"/>
    </g>
  </g>
</svg>